<svg xmlns="http://www.w3.org/2000/svg" width="500" height="500" viewBox="0 0 500 500">
<g>
<path d="M 344.04 322.97 C338.18,324.67 333.21,324.90 296.00,325.18 C234.15,325.66 157.09,324.67 153.44,323.35 C136.36,317.19 124.60,305.09 120.53,289.47 C118.45,281.46 118.35,235.05 120.39,227.35 C124.79,210.84 139.51,197.12 156.73,193.47 C166.94,191.31 332.59,191.34 341.78,193.51 C358.11,197.36 371.12,209.71 376.09,226.08 C377.96,232.22 378.09,234.97 377.81,261.12 L 377.50 289.50 L 373.82 297.00 C371.80,301.12 368.44,306.49 366.36,308.91 C361.28,314.82 352.03,320.65 344.04,322.97 ZM 269.34 422.00 L 265.93 425.00 L 250.22 424.96 C236.43,424.92 234.03,424.66 230.67,422.89 C226.58,420.73 223.06,414.75 223.02,409.87 C222.99,405.83 225.60,400.52 229.04,397.62 C232.14,395.01 232.23,395.00 249.71,395.00 L 267.26 395.00 L 270.63 398.57 C272.48,400.54 274.00,402.79 274.00,403.57 C274.00,404.36 274.49,405.00 275.08,405.00 C280.00,405.00 339.07,387.60 338.87,386.21 C338.42,383.16 340.22,380.61 348.81,372.15 C379.21,342.25 393.03,307.89 392.98,262.37 C392.94,227.77 385.21,201.28 367.62,175.54 C360.93,165.74 347.54,151.88 338.05,144.93 C330.57,139.45 314.93,130.00 313.34,130.00 C312.69,130.00 311.61,131.69 310.94,133.75 C302.50,159.80 281.31,176.01 253.50,177.69 C222.28,179.57 195.37,162.50 187.00,135.50 C186.32,133.30 185.42,131.13 185.00,130.67 C184.03,129.60 175.77,133.80 165.00,140.82 C154.05,147.97 134.20,167.72 127.15,178.50 C109.40,205.62 101.72,236.98 104.00,273.10 C105.02,289.32 106.14,296.06 110.12,310.00 C118.54,339.46 137.59,366.37 163.70,385.68 C172.42,392.13 174.05,394.75 171.63,398.44 C167.90,404.14 162.95,402.89 150.89,393.19 C128.38,375.08 109.02,348.49 100.88,324.50 L 98.50 317.50 L 99.50 201.50 L 105.19 190.00 C112.31,175.63 118.80,165.79 128.32,154.95 C146.06,134.74 172.11,117.77 198.66,109.11 C231.33,98.45 266.35,98.62 299.93,109.62 C314.10,114.25 324.95,119.64 338.25,128.63 C364.86,146.61 383.39,169.02 394.56,196.71 L 398.00 205.25 L 398.00 258.93 C398.00,295.60 398.34,312.94 399.07,313.67 C401.12,315.72 389.30,342.66 380.72,355.50 C378.52,358.80 374.01,364.81 370.71,368.85 L 364.70 376.19 L 368.67 374.17 C382.17,367.28 397.23,346.44 404.08,325.18 L 406.39 318.00 L 410.20 318.00 C412.29,318.00 414.00,318.42 414.00,318.94 C414.00,320.98 408.53,334.93 404.77,342.50 C394.30,363.54 384.26,374.66 368.50,382.70 C353.72,390.24 322.44,400.49 279.37,411.92 C276.23,412.75 274.94,413.73 274.00,416.01 C273.31,417.66 271.22,420.36 269.34,422.00 ZM 413.00 194.13 C413.00,194.61 410.18,195.00 406.74,195.00 L 400.48 195.00 L 398.55 188.28 C396.24,180.20 387.29,162.14 380.76,152.36 C371.85,139.01 357.40,123.86 344.00,113.80 C297.78,79.12 234.75,72.51 181.89,96.82 C157.23,108.16 133.92,127.45 119.00,148.85 C115.43,153.98 112.01,158.88 111.41,159.74 C110.00,161.74 106.07,160.83 102.36,157.63 L 99.63 155.28 L 105.24 146.84 C125.67,116.15 158.83,90.81 194.00,79.03 C241.43,63.14 295.16,69.02 336.79,94.65 C365.38,112.26 387.45,136.07 401.51,164.50 C406.97,175.54 413.00,191.09 413.00,194.13 ZM 233.78 168.02 C239.71,169.53 243.71,169.89 251.00,169.55 C272.08,168.56 287.69,159.84 297.41,143.61 C301.06,137.52 304.50,127.62 303.52,126.03 C302.67,124.66 292.62,121.12 283.59,119.03 C264.38,114.57 239.92,113.95 221.50,117.44 C209.94,119.63 193.00,125.09 193.00,126.62 C193.00,127.33 194.06,130.82 195.35,134.38 C201.76,152.05 214.37,163.08 233.78,168.02 ZM 178.50 283.58 C182.36,285.31 184.31,285.31 188.36,283.62 C195.82,280.51 201.00,270.02 201.00,258.04 C201.00,239.34 190.31,228.01 177.72,233.37 C169.98,236.67 165.61,245.60 165.65,258.00 C165.69,270.48 170.48,280.00 178.50,283.58 ZM 308.31 283.05 C313.36,285.35 314.13,285.39 318.39,283.61 C334.51,276.87 336.20,244.53 320.97,234.18 C313.72,229.25 303.54,233.18 298.86,242.72 C296.03,248.51 295.10,261.70 297.04,268.63 C298.81,274.96 303.39,280.82 308.31,283.05 ZM 263.06 368.88 C253.61,371.25 245.41,371.44 236.50,369.48 C222.64,366.43 213.00,360.99 213.00,356.21 C213.00,353.03 216.82,349.00 219.84,349.00 C221.32,349.00 225.90,350.46 230.02,352.24 C237.02,355.26 238.24,355.47 249.00,355.47 C259.76,355.47 260.98,355.26 267.98,352.24 C277.05,348.31 279.24,348.22 281.93,351.63 C284.05,354.34 284.47,356.60 283.37,359.47 C282.43,361.91 272.58,366.48 263.06,368.88 ZM 96.62 193.25 C96.17,194.66 94.90,195.00 90.03,195.00 C84.94,195.00 84.00,194.73 84.02,193.25 C84.07,189.99 91.00,171.26 93.27,168.28 C93.97,167.35 95.36,167.66 99.10,169.55 C101.79,170.92 104.00,172.44 104.00,172.93 C104.00,173.43 102.46,177.81 100.59,182.67 C98.71,187.53 96.93,192.29 96.62,193.25 Z" fill="rgb(34,81,87)"/>
<path d="M 91.19 308.25 C91.00,310.99 90.97,311.00 83.75,310.91 C73.02,310.79 66.24,308.09 59.64,301.33 C49.99,291.42 48.69,285.29 49.16,251.81 C49.50,228.03 49.56,227.38 52.11,222.00 C53.55,218.98 56.58,214.41 58.86,211.85 L 63.00 207.19 L 63.00 144.87 L 58.07 140.07 C51.17,133.35 50.25,127.05 55.02,119.20 C61.16,109.11 77.14,109.73 82.66,120.28 C86.41,127.43 83.89,137.30 77.24,141.50 L 74.08 143.50 L 74.00 202.00 L 91.50 202.01 L 91.44 253.75 C91.40,282.21 91.29,306.74 91.19,308.25 ZM 427.97 307.43 C423.60,309.39 419.49,310.36 413.90,310.74 L 406.00 311.29 L 406.00 202.00 L 423.00 202.00 L 423.00 144.69 L 418.87 141.16 C411.82,135.12 410.18,127.77 414.28,120.53 C417.53,114.80 422.16,112.00 428.40,112.00 C436.95,112.01 443.15,117.60 444.51,126.55 C445.28,131.59 441.87,138.65 437.29,141.50 L 434.08 143.50 L 434.00 207.21 L 438.45 212.15 C446.31,220.90 446.88,223.72 447.20,255.68 C447.47,282.46 447.40,283.71 445.26,289.00 C442.00,297.06 435.40,304.10 427.97,307.43 Z" fill="rgb(244,107,34)"/>
<path d="M 0.00 250.00 L 0.00 0.00 L 250.00 0.00 L 500.00 0.00 L 500.00 250.00 L 500.00 500.00 L 250.00 500.00 L 0.00 500.00 L 0.00 250.00 ZM 269.34 422.00 C271.22,420.36 273.31,417.66 274.00,416.01 C274.94,413.73 276.23,412.75 279.37,411.92 C322.44,400.49 353.72,390.24 368.50,382.70 C384.26,374.66 394.30,363.54 404.77,342.50 C408.53,334.93 414.00,320.98 414.00,318.94 C414.00,318.42 412.29,318.00 410.20,318.00 L 406.39 318.00 L 404.08 325.18 C397.23,346.44 382.17,367.28 368.67,374.17 L 364.70 376.19 L 370.71 368.85 C374.01,364.81 378.52,358.80 380.72,355.50 C389.30,342.66 401.12,315.72 399.07,313.67 C398.34,312.94 398.00,295.60 398.00,258.93 L 398.00 205.25 L 394.56 196.71 C383.39,169.02 364.86,146.61 338.25,128.63 C324.95,119.64 314.10,114.25 299.93,109.62 C266.35,98.62 231.33,98.45 198.66,109.11 C172.11,117.77 146.06,134.74 128.32,154.95 C118.80,165.79 112.31,175.63 105.19,190.00 L 99.50 201.50 L 99.00 259.50 L 98.50 317.50 L 100.88 324.50 C109.02,348.49 128.38,375.08 150.89,393.19 C162.95,402.89 167.90,404.14 171.63,398.44 C174.05,394.75 172.42,392.13 163.70,385.68 C137.59,366.37 118.54,339.46 110.12,310.00 C106.14,296.06 105.02,289.32 104.00,273.10 C101.72,236.98 109.40,205.62 127.15,178.50 C134.20,167.72 154.05,147.97 165.00,140.82 C175.77,133.80 184.03,129.60 185.00,130.67 C185.42,131.13 186.32,133.30 187.00,135.50 C195.37,162.50 222.28,179.57 253.50,177.69 C281.31,176.01 302.50,159.80 310.94,133.75 C311.61,131.69 312.69,130.00 313.34,130.00 C314.93,130.00 330.57,139.45 338.05,144.93 C347.54,151.88 360.93,165.74 367.62,175.54 C385.21,201.28 392.94,227.77 392.98,262.37 C393.03,307.89 379.21,342.25 348.81,372.15 C340.22,380.61 338.42,383.16 338.87,386.21 C339.07,387.60 280.00,405.00 275.08,405.00 C274.49,405.00 274.00,404.36 274.00,403.57 C274.00,402.79 272.48,400.54 270.63,398.57 L 267.26 395.00 L 249.71 395.00 C232.23,395.00 232.14,395.01 229.04,397.62 C225.60,400.52 222.99,405.83 223.02,409.87 C223.06,414.75 226.58,420.73 230.67,422.89 C234.03,424.66 236.43,424.92 250.22,424.96 L 265.93 425.00 L 269.34 422.00 ZM 263.06 368.88 C272.58,366.48 282.43,361.91 283.37,359.47 C284.47,356.60 284.05,354.34 281.93,351.63 C279.24,348.22 277.05,348.31 267.98,352.24 C260.98,355.26 259.76,355.47 249.00,355.47 C238.24,355.47 237.02,355.26 230.02,352.24 C225.90,350.46 221.32,349.00 219.84,349.00 C216.82,349.00 213.00,353.03 213.00,356.21 C213.00,360.99 222.64,366.43 236.50,369.48 C245.41,371.44 253.61,371.25 263.06,368.88 ZM 344.04 322.97 C352.03,320.65 361.28,314.82 366.36,308.91 C368.44,306.49 371.80,301.12 373.82,297.00 L 377.50 289.50 L 377.81 261.12 C378.09,234.97 377.96,232.22 376.09,226.08 C371.12,209.71 358.11,197.36 341.78,193.51 C332.59,191.34 166.94,191.31 156.73,193.47 C139.51,197.12 124.79,210.84 120.39,227.35 C118.35,235.05 118.45,281.46 120.53,289.47 C124.60,305.09 136.36,317.19 153.44,323.35 C157.09,324.67 234.15,325.66 296.00,325.18 C333.21,324.90 338.18,324.67 344.04,322.97 ZM 91.19 308.25 C91.29,306.74 91.40,282.21 91.44,253.75 L 91.50 202.01 L 82.75 202.00 L 74.00 202.00 L 74.04 172.75 L 74.08 143.50 L 77.24 141.50 C83.89,137.30 86.41,127.43 82.66,120.28 C77.14,109.73 61.16,109.11 55.02,119.20 C50.25,127.05 51.17,133.35 58.07,140.07 L 63.00 144.87 L 63.00 176.03 L 63.00 207.19 L 58.86 211.85 C56.58,214.41 53.55,218.98 52.11,222.00 C49.56,227.38 49.50,228.03 49.16,251.81 C48.69,285.29 49.99,291.42 59.64,301.33 C66.24,308.09 73.02,310.79 83.75,310.91 C90.97,311.00 91.00,310.99 91.19,308.25 ZM 427.97 307.43 C435.40,304.10 442.00,297.06 445.26,289.00 C447.40,283.71 447.47,282.46 447.20,255.68 C446.88,223.72 446.31,220.90 438.45,212.15 L 434.00 207.21 L 434.04 175.35 L 434.08 143.50 L 437.29 141.50 C441.87,138.65 445.28,131.59 444.51,126.55 C443.15,117.60 436.95,112.01 428.40,112.00 C422.16,112.00 417.53,114.80 414.28,120.53 C410.18,127.77 411.82,135.12 418.87,141.16 L 423.00 144.69 L 423.00 173.35 L 423.00 202.00 L 414.50 202.00 L 406.00 202.00 L 406.00 256.64 L 406.00 311.29 L 413.90 310.74 C419.49,310.36 423.60,309.39 427.97,307.43 ZM 96.62 193.25 C96.93,192.29 98.71,187.53 100.59,182.67 C102.46,177.81 104.00,173.43 104.00,172.93 C104.00,172.44 101.79,170.92 99.10,169.55 C95.36,167.66 93.97,167.35 93.27,168.28 C91.00,171.26 84.07,189.99 84.02,193.25 C84.00,194.73 84.94,195.00 90.03,195.00 C94.90,195.00 96.17,194.66 96.62,193.25 ZM 413.00 194.13 C413.00,191.09 406.97,175.54 401.51,164.50 C387.45,136.07 365.38,112.26 336.79,94.65 C295.16,69.02 241.43,63.14 194.00,79.03 C158.83,90.81 125.67,116.15 105.24,146.84 L 99.63 155.28 L 102.36 157.63 C106.07,160.83 110.00,161.74 111.41,159.74 C112.01,158.88 115.43,153.98 119.00,148.85 C133.92,127.45 157.23,108.16 181.89,96.82 C234.75,72.51 297.78,79.12 344.00,113.80 C357.40,123.86 371.85,139.01 380.76,152.36 C387.29,162.14 396.24,180.20 398.55,188.28 L 400.48 195.00 L 406.74 195.00 C410.18,195.00 413.00,194.61 413.00,194.13 ZM 233.78 168.02 C214.37,163.08 201.76,152.05 195.35,134.38 C194.06,130.82 193.00,127.33 193.00,126.62 C193.00,125.09 209.94,119.63 221.50,117.44 C239.92,113.95 264.38,114.57 283.59,119.03 C292.62,121.12 302.67,124.66 303.52,126.03 C304.50,127.62 301.06,137.52 297.41,143.61 C287.69,159.84 272.08,168.56 251.00,169.55 C243.71,169.89 239.71,169.53 233.78,168.02 ZM 178.50 283.58 C170.48,280.00 165.69,270.48 165.65,258.00 C165.61,245.60 169.98,236.67 177.72,233.37 C190.31,228.01 201.00,239.34 201.00,258.04 C201.00,270.02 195.82,280.51 188.36,283.62 C184.31,285.31 182.36,285.31 178.50,283.58 ZM 308.31 283.05 C303.39,280.82 298.81,274.96 297.04,268.63 C295.10,261.70 296.03,248.51 298.86,242.72 C303.54,233.18 313.72,229.25 320.97,234.18 C336.20,244.53 334.51,276.87 318.39,283.61 C314.13,285.39 313.36,285.35 308.31,283.05 Z" fill="rgb(254,254,254)"/>
</g>
</svg>